# xmcd
#
# Track frame offsets: 
#        150
#        33477
#        60501
#        100442
#        141119
#        183160
#        238180
#        260301
#        289869
#        330564
#
# Disc length: 4678 seconds
#
# Revision: 0
# Processed by: cddbd v1.5.2PL0 Copyright (c) Steve Scherf et al.
# Submitted via: ExactAudioCopy v0.95b3
#
DISCID=8e12440a
DTITLE=King Crimson - In The Court Of The Crimson King (40th Anniversa
DTITLE=ry Edition) (2009 Stereo Mix)
DYEAR=1900
DGENRE=
TTITLE0=21st Century Schizoid Man
TTITLE1=I Talk To The Wind
TTITLE2=Epitaph
TTITLE3=Moonchild
TTITLE4=The Court Of The Crimson King
TTITLE5=Moonchild (Full Version)
TTITLE6=I Talk To The Wind (Duo Version)
TTITLE7=I Talk To The Wind (Alternate Mix)
TTITLE8=Epitaph (Backing Track)
TTITLE9=Wind Session
EXTD=
EXTT0=
EXTT1=
EXTT2=
EXTT3=
EXTT4=
EXTT5=
EXTT6=
EXTT7=
EXTT8=
EXTT9=
PLAYORDER=
